<?xml version="1.0" encoding="UTF-8" standalone="no"?>
<svg
   xmlns:dc="http://purl.org/dc/elements/1.1/"
   xmlns:cc="http://creativecommons.org/ns#"
   xmlns:rdf="http://www.w3.org/1999/02/22-rdf-syntax-ns#"
   xmlns:svg="http://www.w3.org/2000/svg"
   xmlns="http://www.w3.org/2000/svg"
   xmlns:xlink="http://www.w3.org/1999/xlink"
   xmlns:sodipodi="http://sodipodi.sourceforge.net/DTD/sodipodi-0.dtd"
   xmlns:inkscape="http://www.inkscape.org/namespaces/inkscape"
   width="210mm"
   height="297mm"
   viewBox="0 0 210 297"
   version="1.1"
   id="svg8"
   inkscape:version="1.0.1 (3bc2e813f5, 2020-09-07)"
   sodipodi:docname="logo.svg">
  <defs
     id="defs2">
    <linearGradient
       inkscape:collect="always"
       id="linearGradient947">
      <stop
         style="stop-color:#fd4f30;stop-opacity:1;"
         offset="0"
         id="stop943" />
      <stop
         style="stop-color:#ff0068;stop-opacity:1"
         offset="1"
         id="stop945" />
    </linearGradient>
    <linearGradient
       inkscape:collect="always"
       xlink:href="#linearGradient947"
       id="linearGradient949"
       x1="159.37878"
       y1="849.1297"
       x2="429.04059"
       y2="850.76294"
       gradientUnits="userSpaceOnUse"
       gradientTransform="matrix(0.26458333,0,0,0.26458333,-1.5119027,-56.696428)" />
  </defs>
  <sodipodi:namedview
     id="base"
     pagecolor="#ffffff"
     bordercolor="#666666"
     borderopacity="1.0"
     inkscape:pageopacity="0.0"
     inkscape:pageshadow="2"
     inkscape:zoom="0.7"
     inkscape:cx="371.85039"
     inkscape:cy="561.25984"
     inkscape:document-units="mm"
     inkscape:current-layer="layer1"
     inkscape:document-rotation="0"
     showgrid="false"
     inkscape:window-width="1280"
     inkscape:window-height="961"
     inkscape:window-x="-8"
     inkscape:window-y="-8"
     inkscape:window-maximized="1" />
  <metadata
     id="metadata5">
    <rdf:RDF>
      <cc:Work
         rdf:about="">
        <dc:format>image/svg+xml</dc:format>
        <dc:type
           rdf:resource="http://purl.org/dc/dcmitype/StillImage" />
        <dc:title></dc:title>
      </cc:Work>
    </rdf:RDF>
  </metadata>
  <g
     inkscape:label="Στρώση 1"
     inkscape:groupmode="layer"
     id="layer1">
    <path
       style="fill:url(#linearGradient949);fill-opacity:1;stroke-width:0.378;stroke-miterlimit:4;stroke-dasharray:none"
       d="M 40.657066,167.96913 C 24.17743,131.6409 10.612467,101.70518 10.512697,101.44532 c -0.2,-0.52093 13.446121,-0.5744 34.667215,-0.13582 l 11.144218,0.23032 11.945538,26.26935 11.945535,26.26933 -2.930374,5.85863 c -1.611704,3.22225 -3.159057,6.1616 -3.438554,6.53189 -0.450173,0.59641 -1.931535,-2.3733 -12.977837,-26.0169 l -12.469653,-26.69015 -9.326965,0.12909 c -5.129831,0.071 -9.431628,0.23374 -9.559546,0.36167 -0.210966,0.21096 40.734953,90.47242 41.342322,91.13529 0.142484,0.1555 9.645251,-20.32916 21.117261,-45.52147 11.472013,-25.1923 20.818753,-45.83945 20.770533,-45.88256 -0.0482,-0.0431 -3.02354,-0.13925 -6.61185,-0.21365 l -6.524194,-0.13528 -4.932971,10.20536 c -2.713136,5.61294 -5.061487,10.33587 -5.218555,10.49541 -0.157067,0.15954 -4.127216,-7.06924 -8.822549,-16.06398 l -8.536974,-16.35406 7.050555,-0.2342 c 3.877805,-0.12881 17.146537,-0.25638 29.486078,-0.28348 17.81479,-0.0391 22.39578,0.048 22.24254,0.42319 -0.10614,0.25986 -8.39163,18.58698 -18.41219,40.72693 -10.02057,22.13995 -18.303411,40.46427 -18.406329,40.7207 -0.197395,0.49181 9.273979,22.78637 9.673119,22.76946 0.12772,-0.005 4.31435,-9.17699 9.30364,-20.38129 4.98928,-11.20429 9.17665,-20.25711 9.30526,-20.11739 0.1286,0.13973 4.37645,9.30718 9.43966,20.37212 5.06321,11.06494 9.32328,19.99463 9.46681,19.84375 0.19821,-0.20834 41.21871,-89.18663 42.16511,-91.46106 0.15498,-0.37247 -2.47568,-0.47247 -12.42913,-0.47247 h -12.62573 l -11.13272,24.03667 c -6.12299,13.22018 -11.22524,24.09428 -11.33833,24.16466 -0.25572,0.15916 -6.0302,-12.37237 -6.03308,-13.09272 -0.001,-0.28809 4.87281,-11.11186 10.83102,-24.05281 l 10.83312,-23.52902 h 25.07671 c 13.79219,0 25.07671,0.0885 25.07671,0.19668 0,0.31285 -60.14036,131.87662 -60.41871,132.17272 -0.13792,0.14671 -4.31616,-8.83277 -9.28497,-19.9544 -4.96882,-11.12164 -9.16499,-20.08631 -9.32482,-19.9215 -0.15984,0.1648 -4.39892,9.14429 -9.42019,19.95441 -5.02127,10.81011 -9.24601,19.77628 -9.38832,19.92482 -0.14231,0.14851 -3.82815,-7.54531 -8.190771,-17.0974 -4.362616,-9.55209 -8.066412,-17.32536 -8.230658,-17.27392 -0.164245,0.0514 -3.90621,7.86773 -8.315475,17.36957 -4.409266,9.50185 -8.119745,17.28115 -8.24551,17.28737 -0.125759,0.006 -13.711996,-29.71182 -30.19163,-66.04005 z"
       id="path901" />
  </g>
</svg>
